<?xml version="1.0" standalone="no"?>
<!DOCTYPE svg PUBLIC "-//W3C//DTD SVG 20010904//EN"
 "http://www.w3.org/TR/2001/REC-SVG-20010904/DTD/svg10.dtd">
<svg version="1.0" xmlns="http://www.w3.org/2000/svg"
 width="260.000000pt" height="260.000000pt" viewBox="0 0 260.000000 260.000000"
 preserveAspectRatio="xMidYMid meet">
<metadata>
Created by potrace 1.14, written by Peter Selinger 2001-2017
</metadata>
<g transform="translate(0.000000,260.000000) scale(0.100000,-0.100000)"
fill="#000000" stroke="none">
<path d="M1190 2559 c0 -5 -8 -8 -17 -7 -41 3 -84 -3 -79 -11 3 -4 -5 -7 -18
-6 -14 2 -35 -2 -48 -9 -25 -13 -112 -15 -124 -3 -14 14 -53 7 -73 -14 -11
-13 -24 -18 -32 -14 -7 5 -10 4 -6 -2 7 -12 -25 -23 -83 -30 -53 -6 -85 -11
-87 -13 -2 -1 -7 -4 -13 -5 -5 -1 -11 -3 -12 -5 -2 -1 -11 -3 -20 -5 -28 -5
-78 -29 -78 -37 0 -5 -4 -7 -8 -6 -19 6 -142 -102 -142 -124 0 -5 -4 -6 -10
-3 -5 3 -10 -3 -10 -14 0 -12 -5 -21 -11 -21 -5 0 -7 -4 -4 -10 3 -5 2 -10 -2
-10 -5 0 -33 -22 -63 -50 -30 -27 -59 -50 -63 -50 -5 0 -5 -4 -2 -10 3 -5 1
-10 -5 -10 -5 0 -19 -15 -30 -32 -11 -18 -20 -28 -20 -23 -1 6 -7 -5 -15 -22
-8 -18 -19 -33 -24 -33 -6 0 -8 -7 -5 -15 4 -8 2 -15 -4 -15 -9 0 -22 -33 -21
-53 0 -4 -7 -19 -16 -33 -9 -13 -13 -29 -10 -34 3 -6 1 -10 -5 -10 -7 0 -10
-6 -7 -14 3 -8 -1 -17 -10 -20 -14 -6 -14 -8 3 -20 10 -8 22 -12 26 -10 5 3 8
0 8 -6 0 -6 4 -8 10 -5 12 8 90 -15 90 -27 0 -4 7 -8 15 -8 8 0 15 -4 15 -10
0 -5 4 -9 9 -7 10 2 111 -100 111 -113 0 -10 93 -6 110 5 5 3 24 8 42 10 18 3
52 9 76 13 23 5 42 7 42 4 0 -2 8 2 17 9 11 10 14 10 9 2 -4 -7 -3 -13 3 -13
5 0 13 5 16 10 4 7 13 6 27 -1 11 -6 18 -7 15 -2 -3 5 28 9 69 8 41 0 74 -4
74 -10 0 -5 5 -4 12 3 8 8 17 8 31 1 15 -9 18 -8 11 3 -6 11 -5 11 9 -1 9 -7
26 -11 37 -8 11 3 23 1 26 -5 4 -6 10 -5 15 3 6 10 9 10 9 2 0 -7 7 -10 17 -6
11 4 14 3 9 -5 -4 -7 -3 -12 2 -12 9 0 16 -25 26 -95 5 -29 12 -64 16 -75 1
-3 2 -9 1 -14 -1 -4 4 -14 10 -22 9 -11 9 -14 -1 -14 -9 0 -8 -6 2 -22 8 -13
14 -31 12 -40 -1 -10 2 -18 7 -18 5 0 9 -5 9 -11 0 -5 -5 -7 -11 -3 -8 5 -8 1
0 -14 16 -30 14 -42 -10 -42 -11 0 -18 -3 -16 -7 3 -5 -11 -9 -31 -11 -61 -4
-72 -6 -72 -15 0 -4 -4 -6 -9 -2 -5 3 -13 0 -16 -6 -4 -5 -13 -8 -20 -5 -7 2
-21 -1 -31 -8 -11 -7 -27 -12 -36 -10 -10 1 -18 -2 -18 -6 0 -5 -10 -12 -22
-15 -20 -6 -123 -55 -194 -93 -13 -7 -24 -18 -24 -24 0 -6 -3 -9 -6 -5 -3 3
-17 -6 -30 -20 -13 -14 -24 -22 -24 -18 0 9 -36 -30 -65 -70 -11 -16 -19 -32
-17 -37 1 -4 -2 -8 -6 -8 -9 0 -11 -7 -16 -60 -4 -49 3 -70 25 -70 11 0 19 -4
19 -9 0 -5 25 -8 55 -8 30 1 55 6 55 11 0 5 7 1 16 -10 8 -10 13 -14 10 -7 -4
6 -2 14 4 18 5 3 10 1 10 -5 0 -7 6 -8 18 -2 9 5 38 9 65 8 26 0 47 3 47 8 0
5 7 3 15 -4 12 -10 15 -9 15 6 0 16 2 17 10 4 5 -8 10 -12 10 -8 0 4 12 3 26
-2 18 -7 23 -7 18 1 -4 7 -1 10 7 7 8 -3 22 -1 31 3 11 6 19 5 24 -3 5 -7 3
-8 -6 -3 -9 5 -11 4 -6 -4 4 -6 13 -8 19 -4 7 4 21 8 32 8 11 0 26 4 33 8 7 5
12 3 12 -3 0 -8 7 -9 18 -5 27 11 62 13 56 4 -3 -5 0 -9 5 -9 6 0 11 5 11 12
0 6 6 4 13 -7 10 -12 16 -14 21 -7 10 16 39 15 30 0 -5 -10 -4 -10 5 -2 7 6
31 8 61 4 27 -3 59 -6 70 -5 11 1 20 -3 20 -8 0 -5 6 -4 14 2 11 9 16 9 21 1
4 -7 16 -10 26 -7 10 3 22 1 25 -4 3 -6 14 -7 25 -4 10 4 19 3 19 -2 0 -5 14
-10 32 -11 18 -2 35 -6 38 -10 3 -4 16 -8 30 -9 46 -2 75 -8 80 -15 3 -4 22
-8 43 -10 20 -1 37 -5 37 -8 0 -3 15 -7 33 -8 63 -5 72 -7 79 -17 5 -6 8 -5 8
3 0 9 5 10 18 3 11 -6 24 -6 35 0 12 7 17 6 17 -3 0 -9 3 -9 10 2 7 10 12 12
18 4 5 -8 17 -6 42 4 19 9 43 17 53 19 10 2 25 10 34 18 8 8 19 13 24 9 5 -3
12 1 15 10 3 9 12 12 21 9 11 -4 14 -2 9 5 -5 9 0 9 19 2 14 -5 24 -6 21 -1
-7 11 13 9 32 -2 6 -5 16 -6 21 -2 5 3 12 1 16 -5 4 -6 11 -8 16 -4 5 3 15 2
22 -3 7 -5 26 -9 42 -9 17 1 33 -3 37 -9 5 -6 8 -6 8 1 0 6 10 10 23 9 28 -2
67 14 88 37 9 10 20 14 25 10 5 -4 6 -3 2 2 -4 5 -3 17 3 27 7 14 6 19 -3 19
-9 0 -10 3 -2 8 10 6 10 22 0 55 -2 6 -7 22 -11 35 -4 12 -12 22 -18 22 -6 0
-8 3 -4 6 6 7 2 12 -55 75 -21 23 -38 39 -38 36 0 -3 -11 5 -25 18 -14 13 -41
31 -60 40 -19 9 -35 20 -35 26 0 6 -4 8 -9 5 -5 -4 -11 -3 -13 1 -4 11 -87 53
-104 53 -8 0 -14 5 -14 12 0 6 -3 8 -6 5 -4 -3 -16 -1 -28 5 -19 11 -35 15
-73 20 -7 1 -13 4 -13 8 0 4 -6 7 -12 8 -19 1 -69 10 -98 17 -14 4 -42 7 -62
8 -21 1 -38 6 -38 11 0 6 -5 5 -11 -1 -7 -7 -20 -8 -33 -3 -50 19 -425 14
-445 -5 -2 -3 -10 0 -18 6 -9 9 -13 8 -13 0 0 -9 -3 -9 -13 0 -11 11 -17 36
-20 87 0 6 -3 12 -6 12 -5 0 -11 32 -14 83 -1 9 -4 17 -7 17 -3 0 -6 12 -7 28
-3 28 -10 67 -13 67 -5 0 -14 72 -11 92 0 6 27 24 59 40 31 15 59 31 60 36 2
4 9 7 16 7 7 0 31 9 54 20 22 11 48 20 56 20 8 0 17 4 20 9 4 5 24 12 46 16
22 4 38 11 35 16 -4 5 1 6 10 2 10 -3 21 0 26 8 6 10 9 10 9 2 0 -10 7 -10 28
-2 31 12 64 19 105 21 15 1 27 5 27 10 0 4 7 4 17 1 12 -5 14 -3 8 8 -6 11 -5
11 5 2 14 -13 43 -6 34 8 -3 5 0 9 6 9 6 0 9 4 5 9 -3 5 0 13 6 16 5 4 8 13 5
21 -3 8 -1 14 5 14 6 0 8 4 4 9 -3 5 -1 12 5 16 6 4 8 11 5 16 -4 5 -2 9 4 9
5 0 13 10 17 23 4 12 16 30 27 40 11 9 17 17 12 17 -4 0 10 13 31 30 22 16 44
34 50 39 7 6 14 8 16 5 13 -12 2 33 -11 49 -35 43 -121 129 -121 121 0 -5 -7
2 -16 14 -8 12 -22 22 -30 22 -8 0 -14 4 -14 8 0 5 -16 14 -35 22 -19 7 -31
18 -28 23 3 6 2 7 -4 4 -5 -3 -22 1 -37 9 -16 7 -35 14 -42 14 -8 0 -14 4 -14
8 0 4 -9 9 -20 10 -43 4 -50 6 -50 14 0 4 -5 8 -11 8 -6 0 -17 6 -24 13 -36
32 -47 39 -52 33 -3 -3 -12 2 -20 10 -8 8 -19 12 -24 9 -5 -4 -9 -1 -9 5 0 6
-4 9 -8 6 -5 -3 -19 1 -33 7 -13 7 -40 13 -61 12 -20 0 -34 3 -32 6 2 4 -5 9
-16 12 -11 3 -20 1 -20 -4z"/>
<path d="M275 824 c-11 -8 -19 -17 -17 -19 6 -12 1 -26 -7 -21 -5 3 -12 -1
-15 -10 -4 -10 -2 -13 7 -8 6 4 0 -4 -15 -19 -17 -16 -25 -32 -22 -41 4 -9 0
-18 -8 -21 -10 -4 -13 -15 -10 -32 3 -16 1 -24 -5 -20 -5 3 -10 0 -10 -8 0 -8
5 -11 10 -8 6 4 7 1 1 -8 -14 -24 -16 -51 -2 -43 8 5 8 1 -1 -10 -12 -15 -13
-19 -1 -26 11 -7 11 -11 1 -23 -10 -12 -8 -18 9 -30 11 -7 21 -26 22 -40 1
-14 4 -24 6 -22 5 5 32 -21 32 -30 0 -10 27 -35 38 -35 5 0 16 -8 23 -17 13
-17 13 -17 -6 -3 -19 14 -19 14 -6 -2 7 -10 22 -18 33 -18 14 0 18 -5 15 -14
-4 -10 -1 -13 9 -9 8 3 22 -3 32 -13 9 -11 23 -19 30 -20 29 -2 33 -5 27 -14
-3 -5 1 -10 9 -10 9 0 16 -4 16 -9 0 -6 9 -8 21 -6 15 3 19 0 15 -10 -3 -9 0
-12 10 -8 7 3 14 1 14 -5 0 -6 11 -9 25 -8 13 2 22 -1 19 -5 -5 -8 17 -14 39
-10 4 0 7 -3 7 -9 0 -5 7 -10 15 -10 8 0 15 -6 15 -12 0 -9 4 -8 10 2 7 11 10
11 10 2 0 -7 4 -11 9 -7 5 3 15 0 23 -7 12 -12 25 -17 53 -22 6 -1 16 -6 24
-10 10 -6 12 -5 7 2 -5 8 -2 10 8 6 9 -3 16 -11 16 -18 0 -6 5 -4 10 4 8 12
10 12 11 -5 0 -11 3 -14 6 -7 4 10 8 10 19 1 11 -9 14 -8 14 2 0 11 2 11 10
-1 5 -8 18 -16 30 -16 11 -1 21 -2 23 -4 8 -6 49 -5 53 2 3 4 11 8 17 8 8 0 8
-3 -1 -9 -10 -6 -8 -10 9 -14 13 -4 26 -1 31 6 5 8 9 6 14 -6 6 -17 7 -17 20
0 9 11 13 13 12 4 -2 -7 5 -15 15 -16 9 -2 15 1 11 6 -3 5 0 9 5 9 6 0 11 -6
11 -12 0 -8 3 -9 8 -3 8 12 32 13 50 2 7 -5 12 -3 12 5 0 8 5 6 11 -5 9 -15
12 -16 31 -3 22 16 52 11 41 -8 -3 -6 4 -2 17 9 20 17 23 18 17 3 -4 -10 -2
-18 3 -18 6 0 10 5 10 10 0 6 5 10 11 10 5 0 7 -5 3 -12 -4 -6 3 -4 16 5 21
15 26 15 41 1 15 -13 18 -13 32 0 9 10 17 12 19 5 2 -6 15 -12 30 -13 20 -2
25 0 20 13 -5 14 -4 14 12 2 15 -13 19 -13 27 0 5 8 9 9 9 4 0 -6 9 -11 20
-12 12 -1 18 3 14 9 -4 7 0 7 13 -1 14 -7 23 -7 31 1 9 9 12 8 12 -3 0 -12 2
-12 10 1 9 13 11 13 20 0 7 -12 10 -12 10 -1 0 7 6 11 15 7 8 -3 15 0 15 7 0
8 4 6 10 -3 8 -12 10 -12 10 -1 0 11 3 11 17 0 9 -8 14 -9 10 -3 -4 7 2 14 13
17 13 3 18 1 13 -6 -4 -7 1 -6 10 2 14 11 17 11 17 0 0 -7 7 -3 16 10 12 16
19 20 27 12 15 -15 42 -14 57 3 8 11 18 12 36 6 17 -7 23 -6 21 3 -1 7 6 11
16 9 9 -2 25 4 33 13 13 12 19 13 30 4 11 -9 14 -9 14 1 0 7 6 10 14 7 8 -3
17 2 21 11 5 14 7 14 15 2 7 -11 10 -12 10 -2 0 7 5 10 10 7 6 -3 10 -1 10 5
0 6 5 8 10 5 6 -3 10 0 10 7 0 9 3 9 10 -2 7 -12 10 -12 10 -1 0 8 6 11 15 7
9 -3 18 1 21 9 4 8 10 13 14 10 4 -2 18 4 30 15 12 11 27 17 31 14 5 -3 9 -1
9 5 0 6 7 7 17 4 9 -4 14 -2 11 3 -7 10 11 29 30 30 29 2 33 5 27 14 -3 5 1
10 10 10 10 0 13 5 9 12 -5 7 -2 9 9 5 9 -3 18 0 21 9 3 8 16 18 30 24 19 7
23 14 19 32 -3 17 -2 19 5 9 8 -10 12 -9 24 8 8 11 18 18 23 13 4 -4 4 3 1 15
-4 12 -2 24 4 28 6 3 8 11 4 16 -3 5 -2 9 3 8 20 -3 27 2 13 11 -10 6 -11 10
-2 10 6 0 12 12 12 26 0 14 4 23 8 20 5 -3 9 1 9 9 0 8 -4 12 -9 9 -4 -3 -8
-1 -8 5 0 5 5 13 10 16 8 5 8 11 1 19 -7 9 -7 16 1 24 9 9 9 12 0 12 -9 0 -10
5 -4 17 11 21 5 43 -17 61 -9 8 -10 10 -3 7 11 -6 12 -3 3 12 -6 11 -7 24 -3
29 4 5 0 3 -9 -4 -21 -16 -31 -4 -18 20 9 17 8 18 -9 9 -17 -9 -19 -8 -15 8 3
10 0 22 -6 25 -7 5 -8 1 -4 -11 6 -16 5 -16 -10 -5 -14 12 -15 11 -4 -12 7
-14 16 -26 20 -26 5 0 5 -6 1 -12 -7 -11 -11 -27 -16 -65 -1 -7 -5 -13 -10
-13 -5 0 -6 -6 -2 -12 5 -8 0 -7 -11 2 -11 9 -16 10 -11 3 4 -8 1 -13 -8 -13
-9 0 -16 -8 -16 -17 0 -15 -1 -15 -13 2 -11 14 -16 15 -22 5 -6 -9 -4 -11 5
-5 9 6 11 4 5 -4 -4 -7 -16 -11 -26 -8 -11 3 -19 2 -19 -3 0 -4 -7 -11 -16
-14 -13 -5 -14 -3 -6 6 8 10 4 13 -19 14 -18 1 -26 -3 -22 -10 4 -7 1 -7 -7 1
-7 6 -19 9 -28 6 -10 -4 -13 -2 -8 5 4 6 -1 11 -11 11 -45 1 -54 5 -48 19 4
11 2 12 -8 4 -16 -13 -58 -12 -50 2 4 5 -1 7 -11 3 -10 -4 -20 -7 -22 -7 -3 0
-2 -6 2 -13 5 -8 2 -7 -9 2 -15 12 -20 12 -33 -5 -9 -10 -13 -13 -9 -6 3 6 2
12 -3 12 -6 0 -12 -7 -16 -15 -3 -8 -12 -12 -19 -9 -8 3 -22 -2 -31 -11 -9 -9
-16 -11 -16 -5 0 7 -5 6 -14 -2 -8 -7 -11 -17 -8 -23 2 -5 -1 -5 -8 2 -10 9
-19 9 -40 -2 -21 -11 -30 -11 -39 -2 -10 9 -12 9 -9 -2 2 -7 -7 -15 -20 -17
-13 -2 -21 0 -18 4 3 5 -2 9 -10 9 -9 0 -13 -6 -9 -15 5 -13 2 -13 -17 0 -21
14 -26 14 -48 -1 -18 -12 -22 -13 -15 -2 6 11 4 13 -8 8 -9 -3 -18 -1 -21 6
-3 9 -7 8 -14 -2 -7 -9 -11 -10 -13 -2 -2 6 -21 12 -41 13 -21 1 -35 5 -32 9
3 5 -8 7 -25 5 -20 -2 -32 2 -36 12 -4 12 -8 12 -22 1 -9 -8 -14 -9 -11 -4 4
6 -5 16 -19 22 -22 10 -24 10 -19 -5 4 -9 -3 -6 -13 8 -18 22 -20 23 -27 7 -6
-17 -8 -16 -21 3 -11 15 -19 18 -26 11 -6 -6 -14 -5 -24 5 -12 12 -18 12 -30
3 -11 -10 -14 -10 -11 2 2 8 -3 13 -11 11 -7 -1 -20 3 -29 10 -14 11 -15 10
-9 -7 6 -16 3 -15 -13 5 -17 20 -19 21 -14 5 6 -19 6 -19 -11 -3 -13 12 -24
14 -41 8 -15 -6 -26 -5 -30 1 -3 6 -12 8 -19 5 -8 -3 -16 0 -19 7 -3 9 -8 8
-15 -3 -10 -14 -16 -7 -12 14 1 5 -4 4 -11 -2 -15 -12 -35 -11 -57 2 -10 6
-12 5 -7 -2 4 -7 1 -12 -9 -12 -10 0 -14 5 -9 13 6 9 4 9 -7 0 -17 -17 -32
-17 -23 0 6 9 4 9 -7 1 -8 -6 -29 -9 -47 -7 -23 2 -31 -1 -26 -9 5 -7 3 -8 -7
-2 -24 14 -51 16 -43 2 6 -10 4 -11 -7 0 -7 6 -17 12 -22 12 -4 0 -5 -6 0 -12
4 -7 -5 -5 -20 5 -24 15 -28 16 -33 3 -4 -11 -11 -13 -23 -6 -12 6 -24 4 -39
-6 -15 -10 -23 -11 -28 -3 -5 8 -3 9 7 4 8 -5 10 -4 6 0 -10 12 -39 16 -32 5
8 -13 -18 -18 -39 -8 -11 6 -16 6 -13 1 4 -5 -9 -10 -28 -10 -19 0 -32 4 -29
9 4 5 -3 4 -14 -3 -17 -11 -24 -10 -38 2 -16 13 -16 12 -4 -11 11 -22 11 -23
-1 -13 -8 6 -30 11 -48 11 -18 -1 -37 5 -42 13 -7 12 -9 12 -9 -1 -1 -12 -3
-11 -11 3 -6 9 -14 15 -20 12 -5 -4 -9 3 -9 15 0 12 -4 19 -8 16 -5 -3 -9 13
-10 34 -2 21 2 41 8 45 16 10 2 25 -17 18 -11 -4 -14 -3 -9 5 9 16 5 15 -19
-4z"/>
<path d="M1835 70 c-3 -5 -1 -10 4 -10 6 0 11 5 11 10 0 6 -2 10 -4 10 -3 0
-8 -4 -11 -10z"/>
<path d="M1255 29 c-4 -6 -5 -12 -2 -15 2 -3 7 2 10 11 7 17 1 20 -8 4z"/>
<path d="M1375 30 c-3 -5 -1 -10 4 -10 6 0 11 5 11 10 0 6 -2 10 -4 10 -3 0
-8 -4 -11 -10z"/>
</g>
</svg>
